<svg xmlns="http://www.w3.org/2000/svg" viewBox="0 0 512 453.64">
  <title>home</title>
  <g>
    <path d="M69.62,442.19s-0.45,11.45,10.73,11.45c13.91,0,129.06-.15,129.06-0.15l0.19-105.75s-1.82-17.43,15.1-17.43h53.55c20,0,18.78,17.43,18.78,17.43L296.8,453.14H423.13c14.19,0,13.55-14.25,13.55-14.25v-195l-178-158.38-189,158.38V442.19Z" fill="#fff"/>
    <path d="M0,229.19s16,29.58,51,0L260.21,52.24l196.1,175.85c40.51,29.22,55.69,0,55.69,0L260.21,0Z" fill="#fff"/>
    <polygon points="451.55 51.83 401.11 51.83 401.32 112.99 451.55 155.61 451.55 51.83" fill="#fff"/>
  </g>
</svg>
