<svg xmlns="http://www.w3.org/2000/svg" viewBox="0 0 112.2 112.2">
  <g>
    <circle cx="56.1" cy="56.1" r="56.1" fill="#007ab9"/>
    <path d="M89.62,60.61V83.74H76.21V62.16c0-5.42-1.94-9.12-6.79-9.12a7.33,7.33,0,0,0-6.88,4.9,9.18,9.18,0,0,0-.44,3.27V83.74H48.68s0.18-36.55,0-40.33H62.09v5.72L62,49.26h0.09V49.13a13.31,13.31,0,0,1,12.09-6.66c8.82,0,15.44,5.76,15.44,18.15h0ZM34.66,24c-4.59,0-7.59,3-7.59,7s2.91,7,7.41,7h0.09c4.68,0,7.58-3.1,7.58-7s-2.91-7-7.5-7h0ZM27.86,83.74H41.27V43.41H27.86V83.74Z" fill="#f1f2f2"/>
  </g>
</svg>
