<svg display="none" width="0" height="0" version="1.1" xmlns="http://www.w3.org/2000/svg" xmlns:xlink="http://www.w3.org/1999/xlink">
  <defs>
    
    
    <symbol id="location" viewBox="0 0 50 50">
     <path fill="#000" d="M25 48c-.3-1.1-.5-2.3-.8-3.4-.9-3.5-2-7-3.5-10.3-.9-2.1-2.2-4-3.4-5.8-1.4-2.1-2.9-4.3-4.3-6.5-1.5-2.6-2.3-5.4-2.1-8.4.2-3 1.3-5.6 3.2-7.9 2.1-2.5 4.7-4.1 7.7-4.8 4.8-1 9.2.1 12.8 3.5 2.4 2.2 3.8 4.9 4.3 8.1.4 2.7 0 5.4-1.2 7.9-1 2.2-2.4 4.2-3.8 6.2-1.5 2.1-3 4.3-4.2 6.6-1.2 2.3-2.1 4.7-2.8 7.2-.7 2.4-1.3 4.8-1.9 7.2.2.1.1.2 0 .4.1 0 0 0 0 0z"/><path fill="#e4f4f3" d="M31.3 13.8c-.1 3.5-2.8 6.2-6.3 6.2-3.6 0-6.3-2.8-6.3-6.3 0-3.6 3-6.3 6.4-6.2 3.3.1 6.1 2.7 6.2 6.3z"/>
    </symbol>
   
    <symbol id="vk" viewBox="0 0 97.5 97.5">
    <path d="M48.875 0C21.883 0 0 21.882 0 48.875S21.883 97.75 48.875 97.75 97.75 75.868 97.75 48.875 75.867 0 48.875 0zm24.792 54.16c2.278 2.226 4.688 4.32 6.733 6.775.906 1.086 1.76 2.21 2.41 3.472.928 1.8.09 3.776-1.522 3.883l-10.013-.002c-2.586.214-4.644-.83-6.38-2.597-1.384-1.408-2.67-2.913-4.003-4.37-.545-.598-1.12-1.16-1.803-1.604-1.366-.888-2.552-.616-3.334.81-.797 1.45-.98 3.06-1.055 4.674-.108 2.36-.82 2.978-3.19 3.09-5.06.236-9.864-.532-14.328-3.084-3.938-2.25-6.986-5.428-9.642-9.025-5.172-7.01-9.133-14.707-12.692-22.624-.8-1.783-.215-2.737 1.752-2.774 3.268-.063 6.536-.055 9.804-.003 1.33.02 2.21.78 2.72 2.036 1.767 4.345 3.932 8.48 6.645 12.313.722 1.02 1.46 2.038 2.51 2.76 1.16.795 2.045.532 2.592-.763.35-.823.5-1.703.577-2.585.26-3.02.29-6.04-.16-9.05-.28-1.883-1.34-3.1-3.216-3.455-.956-.18-.816-.535-.35-1.08.806-.945 1.562-1.53 3.073-1.53H52.11c1.783.35 2.183 1.15 2.425 2.945l.01 12.572c-.02.695.35 2.755 1.597 3.21 1 .33 1.66-.472 2.258-1.105 2.713-2.88 4.646-6.278 6.377-9.795.764-1.55 1.423-3.156 2.063-4.764.476-1.188 1.216-1.773 2.558-1.753l10.894.013c.32 0 .647.003.965.058 1.836.314 2.34 1.104 1.77 2.895-.893 2.814-2.63 5.158-4.328 7.508-1.82 2.517-3.762 4.945-5.564 7.472-1.656 2.31-1.525 3.473.53 5.48z"/>
    </symbol>
    
    <symbol id="ldin" viewBox="0 0 486.392 486.392">
    <path d="M243.196 0C108.89 0 0 108.89 0 243.196s108.89 243.196 243.196 243.196 243.196-108.89 243.196-243.196C486.392 108.86 377.502 0 243.196 0zm-60.8 360.994H121.6V148.197h60.8v212.797zm-28.514-225.838c-15.747 0-28.484-12.768-28.484-28.515s12.768-28.514 28.484-28.514c15.747.03 28.515 12.798 28.515 28.515 0 15.748-12.768 28.516-28.515 28.516zm241.31 225.838h-60.798v-131.57c0-15.412-4.408-26.203-23.347-26.203-31.403 0-37.452 26.205-37.452 26.205v131.57h-60.8V148.196h60.8v20.337c8.694-6.657 30.4-20.307 60.8-20.307 19.698 0 60.798 11.795 60.798 83.05v129.717z" fill="#000"/>
    </symbol>
    
    <symbol id="skype" viewBox="0 0 50 50"><path fill="#000" d="M20.8 1.8c-.1 0-.2-.1-.2-.1h-.3l.5.1zM1.8 20.6v.3c0 .1.1.2.1.2l-.1-.5zM48.2 29.4v-.3c0-.1-.1-.2-.1-.2l.1.5zM28.9 48c.1 0 .2.1.2.1h.3l-.5-.1z"/><path fill="#000" d="M48.2 29.2v.3l-.1-.5s.1.1.1.2c.3-1.4.4-2.8.4-4.3 0-3.2-.6-6.3-1.9-9.2-1.2-2.8-2.9-5.3-5.1-7.5C39.5 6 37 4.3 34.2 3.1c-2.9-1.2-6-1.9-9.2-1.9-1.5 0-3 .1-4.5.4.1 0 .2.1.2.1l-.5-.1h.3C18.5.5 16.2 0 13.9 0 10.2 0 6.7 1.5 4 4.1 1.5 6.8 0 10.3 0 14c0 2.4.6 4.7 1.8 6.8v-.3l.1.5c0-.1-.1-.2-.1-.2-.2 1.3-.4 2.7-.4 4.1 0 3.2.6 6.3 1.9 9.2 1.2 2.8 2.9 5.3 5.1 7.5 2.2 2.2 4.7 3.9 7.5 5.1 2.9 1.2 6 1.9 9.2 1.9 1.4 0 2.8-.1 4.1-.4-.1 0-.2-.1-.2-.1l.5.1h-.3c2.1 1.2 4.5 1.8 6.9 1.8 3.7 0 7.2-1.5 9.9-4.1 2.6-2.6 4.1-6.1 4.1-9.9-.1-2.4-.7-4.8-1.9-6.8zM25.1 39.3c-8.4 0-12.1-4.1-12.1-7.2 0-1.6 1.2-2.7 2.8-2.7 3.6 0 2.7 5.2 9.4 5.2 3.4 0 5.3-1.9 5.3-3.8 0-1.1-.6-2.4-2.8-3L20.1 26c-6-1.5-7.1-4.8-7.1-7.8 0-6.3 6-8.7 11.6-8.7 5.2 0 11.3 2.9 11.3 6.7 0 1.6-1.4 2.6-3 2.6-3.1 0-2.5-4.2-8.7-4.2-3.1 0-4.8 1.4-4.8 3.4s2.4 2.6 4.5 3.1l5.5 1.2c6 1.3 7.6 4.9 7.6 8.2 0 5-3.9 8.8-11.9 8.8z"/></symbol>

    <symbol id="home" viewBox="0 0 611.997 611.998">
    <path d="M511.114 300.25c-9.94 0-17.638 7.664-17.638 17.652v241.105H368.4v-98.453c0-9.236-7.696-17.31-17-17.31h-90.436c-9.948 0-17.96 8.073-17.96 17.31v98.453h-124.76v-233.1c0-9.306-7.69-17.036-17.638-17.036-9.298 0-16.995 7.73-16.995 17.037V576.66c0 9.304 7.698 17.035 16.996 17.035h160.358c9.298 0 16.995-7.73 16.995-17.036v-98.455h55.8v98.454c0 9.304 7.697 17.035 17.64 17.035h159.714c9.3 0 16.995-7.73 16.995-17.036V317.902c0-9.988-7.697-17.652-16.996-17.652z"/><path d="M607.003 314.003L467.82 174.225V78.92c0-9.922-8.02-17.584-17.96-17.584-9.306 0-17.002 7.663-17.002 17.583v60.344L318.046 23.774c-3.518-3.558-7.697-5.474-11.864-5.474-4.81 0-8.983 1.984-12.507 5.474L5.36 312.087c-6.916 6.91-7.374 17.994 0 24.357 6.412 7.39 17.455 6.91 24.372 0L306.182 60.65 581.99 339.045c2.872 2.874 7.053 4.516 12.506 4.516 4.81 0 8.976-1.642 12.507-4.516 6.417-6.43 6.896-18.062 0-25.04z"/></symbol>
  </defs>
</svg>